<svg width="128" height="128" viewBox="0 0 128 128" fill="none" xmlns="http://www.w3.org/2000/svg">
  <title>Project JSON Icon</title>
  <defs>
    <linearGradient id="project-json-surface" x1="16" y1="16" x2="112" y2="112" gradientUnits="userSpaceOnUse">
      <stop offset="0" stop-color="#09172F"/>
      <stop offset="0.52" stop-color="#18092F"/>
      <stop offset="1" stop-color="#080B18"/>
    </linearGradient>
    <linearGradient id="project-json-stroke" x1="18" y1="24" x2="110" y2="104" gradientUnits="userSpaceOnUse">
      <stop offset="0" stop-color="#68E7FF"/>
      <stop offset="0.5" stop-color="#9A62FF"/>
      <stop offset="1" stop-color="#FF79D9"/>
    </linearGradient>
    <linearGradient id="project-json-glow" x1="32" y1="40" x2="96" y2="96" gradientUnits="userSpaceOnUse">
      <stop offset="0" stop-color="#5BE1FF"/>
      <stop offset="1" stop-color="#B14FFF"/>
    </linearGradient>
    <filter id="project-json-shadow" x="0" y="0" width="128" height="128" filterUnits="userSpaceOnUse" color-interpolation-filters="sRGB">
      <feFlood flood-opacity="0" result="BackgroundImageFix"/>
      <feColorMatrix in="SourceAlpha" type="matrix" values="0 0 0 0 0 0 0 0 0 0 0 0 0 0 0 0 0 0 127 0" result="hardAlpha"/>
      <feOffset dy="4"/>
      <feGaussianBlur stdDeviation="6"/>
      <feComposite in2="hardAlpha" operator="out"/>
      <feColorMatrix type="matrix" values="0 0 0 0 0.364706 0 0 0 0 0.113725 0 0 0 0 0.701961 0 0 0 0.35 0"/>
      <feBlend mode="normal" in2="BackgroundImageFix" result="effect1_dropShadow_1_1"/>
      <feBlend mode="normal" in="SourceGraphic" in2="effect1_dropShadow_1_1" result="shape"/>
    </filter>
  </defs>

  <g filter="url(#project-json-shadow)">
    <path
      d="M28 16H100L112 28V100L100 112H28L16 100V28L28 16Z"
      fill="url(#project-json-surface)"
      stroke="url(#project-json-stroke)"
      stroke-width="3"
      stroke-linejoin="round"
    />
    <path
      d="M27 36H101"
      stroke="url(#project-json-stroke)"
      stroke-width="2.5"
      stroke-linecap="round"
      opacity="0.8"
    />
    <circle cx="31" cy="26" r="2.5" fill="#68E7FF"/>
    <circle cx="40" cy="26" r="2.5" fill="#9A62FF"/>
    <circle cx="49" cy="26" r="2.5" fill="#FF79D9"/>

    <path
      d="M42 50C35.5 50 33 54 33 60V63C33 67 30.5 70 26 70C30.5 70 33 73 33 77V80C33 86 35.5 90 42 90"
      stroke="url(#project-json-glow)"
      stroke-width="4"
      stroke-linecap="round"
      stroke-linejoin="round"
    />
    <path
      d="M86 50C92.5 50 95 54 95 60V63C95 67 97.5 70 102 70C97.5 70 95 73 95 77V80C95 86 92.5 90 86 90"
      stroke="url(#project-json-glow)"
      stroke-width="4"
      stroke-linecap="round"
      stroke-linejoin="round"
    />

    <circle cx="53" cy="56" r="4.5" fill="#68E7FF"/>
    <circle cx="53" cy="84" r="4.5" fill="#68E7FF"/>
    <circle cx="76" cy="70" r="4.5" fill="#FF79D9"/>
    <path d="M57.5 56H70C73.3137 56 76 58.6863 76 62V65.5" stroke="url(#project-json-glow)" stroke-width="3" stroke-linecap="round"/>
    <path d="M57.5 84H70C73.3137 84 76 81.3137 76 78V74.5" stroke="url(#project-json-glow)" stroke-width="3" stroke-linecap="round"/>
    <path d="M53 60.5V79.5" stroke="url(#project-json-glow)" stroke-width="3" stroke-linecap="round" opacity="0.7"/>

    <path
      d="M48 104H80"
      stroke="url(#project-json-stroke)"
      stroke-width="2"
      stroke-linecap="round"
      opacity="0.55"
    />
  </g>
</svg>
